Coordinates
version=1
nRows=27
nColumns=12
inDegrees=yes

Units are S.I. units (second, meters, Newtons, ...)
Angles are in degrees

endheader
time	SC_y	SC_z	SC_x	AC_y	AC_z	AC_x	GH_y	GH_z	GH_yy	EL_x	PS_y
       0.0              -15.25           39.4          75.96          31.31          2.549           10.5          60.74          23.99          -54.3          5.657          86.17
  0.004842              -15.26          39.39          75.96          31.31           2.55           10.5          60.72           24.0         -54.27          5.677          86.17
  0.009684              -15.26          39.39          75.96          31.31           2.55          10.49          60.69          24.01         -54.24          5.697          86.18
   0.01453              -15.27          39.38          75.96          31.31          2.551          10.49          60.67          24.02         -54.21          5.719          86.19
   0.01937              -15.28          39.38          75.96          31.31          2.552          10.49          60.64          24.03         -54.17          5.742          86.21
   0.02421              -15.28          39.37          75.96          31.31          2.553          10.48          60.61          24.04         -54.13          5.767          86.22
   0.02905              -15.29          39.37          75.97          31.31          2.553          10.48          60.58          24.05         -54.09          5.793          86.23
   0.03389               -15.3          39.36          75.97          31.31          2.554          10.47          60.55          24.07         -54.05          5.821          86.24
   0.03874              -15.31          39.35          75.97          31.31          2.555          10.46          60.52          24.08          -54.0          5.852          86.26
   0.04358              -15.32          39.35          75.97          31.31          2.556          10.46          60.48           24.1         -53.96          5.884          86.27
   0.04842              -15.33          39.34          75.97          31.31          2.558          10.45          60.44          24.11          -53.9          5.919          86.29
   0.05326              -15.34          39.33          75.97          31.31          2.559          10.44           60.4          24.13         -53.84          5.956          86.31
   0.05811              -15.35          39.32          75.97          31.31           2.56          10.44          60.35          24.15         -53.78          5.997          86.33
   0.06295              -15.37          39.31          75.97          31.31          2.562          10.43           60.3          24.17         -53.72           6.04          86.35
   0.06779              -15.38           39.3          75.98          31.31          2.563          10.42          60.25           24.2         -53.64          6.088          86.37
   0.07263               -15.4          39.29          75.98          31.31          2.565          10.41          60.19          24.22         -53.57          6.139          86.39
   0.07747              -15.41          39.28          75.98          31.31          2.567           10.4          60.13          24.25         -53.48          6.195          86.42
   0.08232              -15.43          39.27          75.98          31.31          2.569          10.39          60.06          24.28         -53.39          6.255          86.45
   0.08716              -15.45          39.25          75.98          31.31          2.571          10.37          59.98          24.31         -53.29          6.321          86.48
     0.092              -15.48          39.24          75.99           31.3          2.574          10.36           59.9          24.34         -53.18          6.394          86.51
   0.09684               -15.5          39.22          75.99           31.3          2.576          10.34          59.81          24.38         -53.06          6.474          86.55
    0.1017              -15.53           39.2          75.99           31.3          2.579          10.33          59.71          24.42         -52.92          6.561          86.59
    0.1065              -15.56          39.18           76.0           31.3          2.582          10.31           59.6          24.47         -52.77          6.658          86.64
    0.1114              -15.59          39.16           76.0           31.3          2.586          10.29          59.48          24.52         -52.61          6.765          86.69
    0.1162              -15.63          39.13           76.0           31.3           2.59          10.26          59.34          24.58         -52.43          6.884          86.75
    0.1211              -15.67           39.1          76.01           31.3          2.595          10.24          59.19          24.64         -52.23          7.017          86.81
    0.1259              -15.71          39.07          76.01           31.3            2.6          10.21          59.02          24.72          -52.0          7.166          86.88
